<?xml version="1.0" encoding="UTF-8"?>
<svg width="72px" height="72px" viewBox="0 0 72 72" version="1.1" xmlns="http://www.w3.org/2000/svg" xmlns:xlink="http://www.w3.org/1999/xlink">
    <!-- Generator: Sketch 64 (93537) - https://sketch.com -->
    <title> cart icon</title>
    <desc>Created with Sketch.</desc>
    <g id="-cart-icon" stroke="none" stroke-width="1" fill="none" fill-rule="evenodd">
        <g>
            <circle id="Oval" fill="#FCE333" cx="36" cy="36" r="36"></circle>
            <g id="Group-4" transform="translate(17.000000, 16.000000)" stroke="#000000" stroke-width="1.8">
                <path d="M11,24 L29.6953488,24 L39.248784,5.45801352 C39.5017378,4.96706263 39.3088032,4.36400866 38.8178523,4.11105477 C38.6762091,4.03807559 38.5191772,4 38.3598387,4 L6.7,4 L6.7,4" id="Path-3"></path>
                <path d="M0,0 L2.45080169,0 C2.72190875,6.16332255e-16 2.98139771,0.110074781 3.16981587,0.305004606 L3.59375,0.743589744 C4.05478932,1.22056242 4.3125,1.85798868 4.3125,2.521359 L4.3125,27.5128205 L4.3125,27.5128205 C4.3125,28.5042735 4.79166667,29 5.75,29 C6.70833333,29 12.4583333,29 23,29" id="Path-2"></path>
                <g id="Group-3" transform="translate(3.000000, 33.000000)">
                    <circle id="Oval" cx="4" cy="4" r="4"></circle>
                    <circle id="Oval-Copy-2" cx="22" cy="4" r="4"></circle>
                </g>
            </g>
        </g>
    </g>
</svg>